# File produced by Open Asset Import Library (http://www.assimp.sf.net)
# (assimp v3.2.202087883)

mtllib model_normalized.mtl

# 118 vertex positions
v 0.291461 -0.360982 -0.298412
v 0.231665 -0.360982 -0.365829
v 0.291461 -0.360982 -0.365829
v 0.231665 -0.360982 -0.298412
v 0.291461 -0.044409 -0.365829
v 0.231665 -0.177557 -0.298412
v 0.231665 -0.177557 -0.365829
v 0.291461 -0.144971 -0.298412
v -0.218192 -0.177557 -0.365829
v 0.291461 -0.144971 0.051101
v -0.218192 -0.177557 -0.298412
v -0.294884 -0.044409 -0.365829
v 0.291461 -0.044409 0.048867
v -0.294884 -0.144971 -0.298412
v -0.294884 -0.360982 -0.365829
v -0.258025 -0.044409 -0.328970
v 0.291461 0.219191 0.117781
v 0.254602 -0.044409 -0.328970
v -0.294884 -0.144971 0.051101
v -0.218192 -0.360982 -0.298412
v -0.218192 -0.360982 -0.365829
v -0.294884 -0.044409 0.048867
v 0.291461 -0.360982 0.117781
v 0.291461 0.166222 0.051101
v 0.254602 -0.044409 0.048867
v -0.218192 -0.177557 0.051101
v -0.294884 -0.360982 -0.298412
v -0.258025 -0.044409 0.048867
v 0.254602 -0.072565 -0.328970
v 0.291461 -0.360982 0.051101
v 0.244206 0.235257 0.117781
v 0.291461 0.166222 0.048867
v 0.291461 0.219191 0.051101
v 0.281209 -0.034158 0.048867
v -0.294884 -0.360982 0.051101
v 0.231665 -0.177557 0.051101
v -0.294884 0.219191 0.117781
v -0.284630 -0.034158 0.048867
v -0.258025 -0.072565 0.048867
v -0.258025 -0.072565 -0.328970
v 0.231665 -0.360982 0.051101
v 0.231665 -0.177557 0.117781
v -0.294884 0.166222 0.051101
v 0.244206 0.235257 0.051101
v 0.254602 -0.072565 0.048867
v -0.218192 -0.360982 0.051101
v -0.284630 0.155968 0.048867
v -0.229191 -0.072565 -0.300137
v 0.231665 -0.360982 0.117781
v 0.196078 0.248481 0.117781
v 0.281209 0.155968 0.048867
v -0.294884 0.166222 0.048867
v -0.294884 0.219191 0.051101
v 0.196078 0.248481 0.051101
v 0.225769 -0.072565 -0.300137
v -0.218192 -0.360982 0.117781
v -0.294884 -0.360982 0.117781
v -0.218192 -0.177557 0.117781
v -0.284630 -0.034158 0.085726
v 0.159737 0.165850 0.117781
v 0.281209 0.155968 0.085726
v -0.247628 0.235257 0.051101
v 0.147249 0.258816 0.051101
v 0.225769 -0.072565 0.020034
v -0.157596 -0.106585 0.117781
v -0.284630 0.155968 0.085726
v 0.281209 -0.034158 0.085726
v -0.229191 -0.072565 0.020034
v 0.225769 -0.044409 -0.300137
v 0.159737 -0.106585 0.117781
v 0.147249 0.258816 0.117781
v -0.199500 0.248481 0.051101
v 0.097890 0.266222 0.051101
v -0.247628 0.235257 0.117781
v -0.199500 0.248481 0.117781
v -0.259176 0.130514 0.085726
v -0.259176 -0.008701 0.085726
v -0.229191 -0.044409 0.020034
v -0.229191 -0.044409 -0.300137
v 0.159737 0.165850 0.139470
v 0.159737 -0.106585 0.117021
v 0.097890 0.266222 0.117781
v 0.255753 -0.008701 0.085726
v -0.150671 0.258816 0.051101
v 0.048179 0.270678 0.051101
v 0.225769 -0.044409 0.020034
v -0.157596 0.165850 0.117781
v -0.157596 -0.106585 0.139470
v 0.159737 -0.106585 0.139470
v 0.159737 0.165850 0.117021
v 0.048179 0.270678 0.117781
v 0.255753 0.130514 0.085726
v -0.101311 0.266222 0.051101
v -0.001711 0.272164 0.051101
v -0.150671 0.258816 0.117781
v -0.157596 0.165850 0.117021
v -0.157596 -0.106585 0.117021
v -0.259176 -0.008701 0.048867
v 0.192674 -0.139522 0.139470
v -0.157596 0.165850 0.139470
v 0.159737 -0.106585 0.101801
v -0.001711 0.272164 0.117781
v 0.255753 0.130514 0.048867
v -0.051601 0.270678 0.051101
v -0.259176 0.130514 0.048867
v 0.255753 -0.008701 0.048867
v 0.192674 0.198790 0.139470
v -0.101311 0.266222 0.117781
v -0.157596 0.165850 0.101801
v 0.159737 0.165850 0.101801
v -0.051601 0.270678 0.117781
v -0.190535 0.198790 0.139470
v -0.190535 -0.139522 0.139470
v -0.157596 -0.106585 0.101801
v 0.192674 0.198790 0.101801
v -0.190535 -0.139522 0.101801
v 0.192674 -0.139522 0.101801
v -0.190535 0.198790 0.101801

# 267 UV coordinates
vt -0.922825 0 0
vt 0 -0.629622 0
vt 0 0 0
vt -0.922825 -0.629622 0
vt 0.818509 0 0
vt 0 3.33333 0
vt -0.818509 1.93136 0
vt -0.818509 0 0
vt 0.922825 1.93136 0
vt 0.922825 0 0
vt 0.818509 1.93136 0
vt -0.922825 2.27448 0
vt -0 2.27448 0
vt 0 1.93136 0
vt 6.97628 1.93136 0
vt -5.70706 2.27448 0
vt -6.97628 1.93136 0
vt 0 -5.36637 0
vt 8.02604 3.33333 0
vt -5.67648 3.33333 0
vt -5.70706 0 0
vt -0.922825 -6.17388 0
vt -8.02604 2.27448 0
vt -0.922825 -5.36637 0
vt 8.02604 0 0
vt 0 -6.17388 0
vt 0.504534 -5.78578 0
vt -6.61979 6.10891 0
vt 0.504534 -0.388103 0
vt 5.67648 0 0
vt -5.70706 -6.17388 0
vt -6.97628 0 0
vt -0.922825 1.93136 0
vt 6.97628 0 0
vt 0.922825 2.27448 0
vt 5.67648 -6.17388 0
vt -6.61979 0 0
vt -5.70706 5.55115 0
vt 5.67648 -0.388103 0
vt 8.02604 2.27448 0
vt 5.70706 2.27448 0
vt 5.67648 3.33333 0
vt -8.02604 0 0
vt 5.67648 -5.78578 0
vt -7.52151 3.33333 0
vt -0.504534 3.03686 0
vt -0.504534 3.33333 0
vt -0.646839 6.27807 0
vt 0 6.10891 0
vt -5.67648 5.55115 0
vt -5.70706 6.10891 0
vt 0.504534 3.03686 0
vt 0.504534 3.33333 0
vt 0.140335 3.44128 0
vt 6.61979 6.10891 0
vt 7.88571 3.44128 0
vt 7.52151 3.33333 0
vt -5.67648 3.03686 0
vt -7.52151 3.03686 0
vt -5.70706 -0.629622 0
vt -5.70706 1.96635 0
vt -6.61979 2.49189 0
vt -6.61979 1.96635 0
vt 0 5.55115 0
vt 5.70706 -6.17388 0
vt 5.70706 0 0
vt 0.646839 6.27807 0
vt 5.67648 3.03686 0
vt -6.61979 -0.629622 0
vt -5.70706 -5.36637 0
vt 5.70706 5.55115 0
vt 7.88571 5.4432 0
vt 7.52151 3.03686 0
vt 0.899215 -5.48217 0
vt -1.30562 6.4173 0
vt -5.70706 2.49189 0
vt 0.140335 5.4432 0
vt 8.02604 6.10891 0
vt 8.02604 5.55115 0
vt 1.30562 6.4173 0
vt 0.899215 -0.691704 0
vt -6.61979 -5.36637 0
vt -5.70706 1.93136 0
vt 6.61979 -0 0
vt 6.61979 1.93136 0
vt 5.70706 1.93136 0
vt 5.70706 6.10891 0
vt 5.67648 5.55115 0
vt -5.67648 5.4432 0
vt -6.18101 3.44128 0
vt -5.67648 3.44128 0
vt 6.18101 -6.06593 0
vt 5.67648 -0.10795 0
vt 5.67648 -6.06593 0
vt -1.80308 5.54725 0
vt -5.70706 2.14304 0
vt -6.61979 2.66858 0
vt -6.61979 2.14304 0
vt 5.67648 3.44128 0
vt 6.18101 5.4432 0
vt 5.67648 5.4432 0
vt 7.3792 6.27807 0
vt 1.97402 6.52611 0
vt -5.70706 2.66858 0
vt 5.2818 -0.691704 0
vt -6.61979 -6.17388 0
vt -6.61979 1.93136 0
vt -8.02604 6.10891 0
vt -6.14683 2.67866 0
vt 6.61979 -3.87895 0
vt 5.70706 -3.35342 0
vt 5.70706 -3.87895 0
vt -6.18101 5.4432 0
vt 6.18101 -0.10795 0
vt 5.2818 -5.48217 0
vt 7.12683 3.03686 0
vt 0.899215 3.33333 0
vt 0.899215 3.03686 0
vt -1.80308 2.67866 0
vt -1.97402 6.52611 0
vt -6.18101 -0.10795 0
vt -5.67648 -6.06593 0
vt -5.67648 -0.10795 0
vt 6.18101 3.44128 0
vt 6.72042 6.4173 0
vt 2.64965 6.6041 0
vt -6.61979 2.83673 0
vt -5.70706 2.3112 0
vt -5.70706 2.83673 0
vt -6.61979 2.3112 0
vt -0.899215 3.33333 0
vt -5.2818 3.03686 0
vt -0.899215 3.03686 0
vt -7.3792 6.27807 0
vt -6.72042 6.4173 0
vt 6.61979 -3.35342 0
vt -6.18101 -6.06593 0
vt 7.53726 5.17517 0
vt 7.53726 3.70932 0
vt 5.2818 3.33333 0
vt 5.2818 3.03686 0
vt 7.12683 3.33333 0
vt 6.61979 2.67866 0
vt 6.91667 5.54725 0
vt 6.61979 5.54725 0
vt 6.60938 2.67866 0
vt -2.64965 6.6041 0
vt 0.48878 3.70932 0
vt 6.61979 -3.81023 0
vt 5.70706 -3.28469 0
vt 5.70706 -3.81023 0
vt 6.05202 6.52611 0
vt 3.33013 6.65101 0
vt -6.61979 2.99575 0
vt -5.70706 2.47021 0
vt -5.70706 2.99575 0
vt -6.61979 2.47021 0
vt -5.2818 3.33333 0
vt -7.12683 3.33333 0
vt -7.12683 3.03686 0
vt -6.14683 5.54725 0
vt 6.91667 -4.72833 0
vt 6.61979 -1.38699 0
vt 6.61979 -4.72833 0
vt 6.60938 -1.38699 0
vt 6.91667 2.67866 0
vt -6.91667 -1.38699 0
vt -6.61979 -4.72833 0
vt -6.61979 -1.38699 0
vt 6.60938 5.54725 0
vt -3.33013 6.65101 0
vt 0.48878 5.17517 0
vt 6.61979 -3.28469 0
vt 6.61979 -3.72891 0
vt 5.70706 -3.20337 0
vt 5.70706 -3.72891 0
vt 5.37639 6.6041 0
vt 4.01302 6.66667 0
vt -6.61979 3.14507 0
vt -5.70706 2.61953 0
vt -5.70706 3.14507 0
vt -6.61979 2.61953 0
vt -6.05202 6.52611 0
vt -6.61979 5.54725 0
vt -6.91667 2.67866 0
vt -6.61979 2.67866 0
vt -6.60938 5.54725 0
vt 6.91667 -1.38699 0
vt 6.60938 -4.72833 0
vt 6.18101 5.17517 0
vt 5.67648 3.70932 0
vt 6.18101 3.70932 0
vt -5.67648 -5.79789 0
vt -6.18101 -0.375985 0
vt -6.18101 -5.79789 0
vt -1.35222 2.33184 0
vt -6.91667 -4.72833 0
vt -6.60938 -4.72833 0
vt -6.60938 -1.38699 0
vt 6.40104 2.67866 0
vt -4.01302 6.66667 0
vt -6.18101 3.70932 0
vt -5.67648 5.17517 0
vt -6.18101 5.17517 0
vt 6.61979 -3.20337 0
vt 6.61979 -3.63529 0
vt 5.70706 -3.10976 0
vt 5.70706 -3.63529 0
vt 4.69592 6.65101 0
vt -6.61979 3.28416 0
vt -5.70706 2.75862 0
vt -5.70706 3.28416 0
vt -6.61979 2.75862 0
vt -6.91667 5.54725 0
vt -6.60938 2.67866 0
vt 6.40104 -1.38699 0
vt 5.67648 -0.375985 0
vt 6.18101 -5.79789 0
vt 6.18101 -0.375985 0
vt 5.67648 5.17517 0
vt -5.67648 -0.375985 0
vt -1.35222 5.89407 0
vt -5.37639 6.6041 0
vt -6.40104 -4.72833 0
vt 6.40104 5.54725 0
vt -4.69592 6.65101 0
vt -5.67648 3.70932 0
vt 6.61979 -3.10976 0
vt 6.61979 -3.5297 0
vt 5.70706 -3.00417 0
vt 5.70706 -3.5297 0
vt 6.61979 -3.41252 0
vt 5.70706 -2.88698 0
vt 5.70706 -3.41252 0
vt 6.61979 -2.88698 0
vt -6.59769 5.89407 0
vt -6.40104 5.54725 0
vt -6.59769 2.33184 0
vt 6.40104 -4.72833 0
vt 5.67648 -5.79789 0
vt -6.91667 2.33184 0
vt -6.40104 5.89407 0
vt -6.91667 5.89407 0
vt -6.40104 -1.38699 0
vt 1.80308 5.54725 0
vt 1.35222 5.89407 0
vt 1.80308 2.67866 0
vt 6.61979 -3.00417 0
vt -6.40104 2.67866 0
vt -6.40104 -5.07515 0
vt -6.91667 -1.04017 0
vt -6.91667 -5.07515 0
vt 1.35222 2.33184 0
vt 6.14683 2.67866 0
vt -6.40104 2.33184 0
vt 6.40104 -1.04017 0
vt 6.91667 -5.07515 0
vt 6.91667 -1.04017 0
vt 6.14683 5.54725 0
vt 6.91667 5.89407 0
vt 6.40104 2.33184 0
vt 6.91667 2.33184 0
vt 6.59769 2.33184 0
vt -6.40104 -1.04017 0
vt 6.40104 -5.07515 0
vt 6.59769 5.89407 0
vt 6.40104 5.89407 0

# 34 vertex normals
vn 0 -0.0254 0
vn 0 0 -0.0254
vn 0.0254 0 0
vn 0 0 0.0254
vn -0.0254 0 0
vn 0 0.0254 0
vn 0.0081758 0.0240482 0
vn 0.00745584 0.0242811 0
vn 0.00599666 0.024682 0
vn -0.0081758 0.0240482 0
vn -0.00745584 0.0242811 0
vn 0.00451622 0.0249953 0
vn -0.00599666 0.024682 0
vn 0.00301976 0.0252199 0
vn -0.00451622 0.0249953 0
vn 0.00151257 0.0253549 0
vn -0.00301976 0.0252199 0
vn 0.000756615 0.0253887 0
vn -0.00151257 0.0253549 0
vn -0.000756615 0.0253887 0
vn -0.0081758 -0.0240482 -0
vn -0.00745584 -0.0242811 -0
vn -0.00599666 -0.024682 -0
vn 0.0081758 -0.0240482 0
vn 0.00745584 -0.0242811 0
vn -0.00451622 -0.0249953 -0
vn 0.00599666 -0.024682 0
vn -0.00301976 -0.0252199 -0
vn 0.00451622 -0.0249953 0
vn -0.00151257 -0.0253549 -0
vn 0.00301976 -0.0252199 0
vn -0.000756615 -0.0253887 -0
vn 0.00151257 -0.0253549 0
vn 0.000756615 -0.0253887 0

# Mesh 'mesh1_mesh1-geometry' with 240 faces
g mesh1_mesh1-geometry
usemtl material_0_1_8
f  1/1/1 2/2/1 3/3/1
f  2/2/1 1/1/1 4/4/1
f  2/5/2 5/6/2 3/3/2
f  5/6/3 1/1/3 3/3/3
f  1/3/4 6/7/4 4/8/4
f  6/9/5 2/3/5 4/10/5
f  7/11/2 5/6/2 2/5/2
f  1/1/3 5/6/3 8/12/3
f  8/13/4 6/7/4 1/3/4
f  2/3/5 6/9/5 7/14/5
f  9/15/2 5/6/2 7/11/2
f  8/12/3 5/6/3 10/16/3
f  8/13/4 11/17/4 6/7/4
f  6/4/1 9/18/1 7/2/1
f  9/15/2 12/19/2 5/6/2
f  13/20/3 10/16/3 5/6/3
f  10/21/1 14/22/1 8/1/1
f  14/23/4 11/17/4 8/13/4
f  9/18/1 6/4/1 11/24/1
f  12/19/2 9/15/2 15/25/2
f  12/26/6 16/27/6 5/3/6
f  17/28/3 10/16/3 13/20/3
f  5/3/6 18/29/6 13/30/6
f  14/22/1 10/21/1 19/31/1
f  14/23/4 20/32/4 11/17/4
f  20/1/3 9/14/3 11/33/3
f  21/34/2 15/25/2 9/15/2
f  15/3/5 14/35/5 12/6/5
f  16/27/6 12/26/6 22/36/6
f  18/29/6 5/3/6 16/27/6
f  23/37/3 10/16/3 17/28/3
f  17/28/3 13/20/3 24/38/3
f  13/30/6 18/29/6 25/39/6
f  26/15/2 19/40/2 10/13/2
f  19/41/5 22/42/5 14/35/5
f  20/32/4 14/23/4 27/43/4
f  9/14/3 20/1/3 21/3/3
f  20/24/1 15/26/1 21/18/1
f  14/35/5 15/3/5 27/10/5
f  12/6/5 14/35/5 22/42/5
f  16/27/6 22/36/6 28/44/6
f  16/45/4 29/46/4 18/47/4
f  10/16/3 23/37/3 30/21/3
f  31/48/4 23/3/4 17/49/4
f  24/38/3 13/20/3 32/50/3
f  17/28/3 24/38/3 33/51/3
f  29/52/5 25/42/5 18/53/5
f  25/53/2 34/54/2 13/6/2
f  19/40/2 26/15/2 35/25/2
f  26/15/2 10/13/2 36/11/2
f  19/41/5 37/55/5 22/42/5
f  15/26/1 20/24/1 27/22/1
f  22/19/2 38/56/2 28/57/2
f  39/58/3 16/47/3 28/20/3
f  29/46/4 16/45/4 40/59/4
f  23/37/1 41/60/1 30/21/1
f  30/3/2 36/11/2 10/13/2
f  42/7/4 23/3/4 31/48/4
f  33/61/7 31/62/8 17/63/7
f  13/6/2 34/54/2 32/64/2
f  32/30/6 43/65/6 24/66/6
f  24/64/2 44/67/2 33/49/2
f  25/42/5 29/52/5 45/68/5
f  28/57/2 34/54/2 25/53/2
f  46/34/2 35/25/2 26/15/2
f  35/66/5 37/55/5 19/41/5
f  42/69/1 26/70/1 36/60/1
f  22/42/5 37/55/5 43/71/5
f  38/56/2 22/19/2 47/72/2
f  28/57/2 38/56/2 34/54/2
f  16/47/3 39/58/3 40/46/3
f  25/53/2 39/73/2 28/57/2
f  40/27/6 48/74/6 29/29/6
f  41/60/1 23/37/1 49/69/1
f  36/11/2 30/3/2 41/5/2
f  23/3/4 42/7/4 49/8/4
f  50/75/4 42/7/4 31/48/4
f  31/62/8 33/61/7 44/76/8
f  51/77/2 32/64/2 34/54/2
f  43/65/6 32/30/6 52/36/6
f  53/78/2 24/64/2 43/79/2
f  24/64/2 54/80/2 44/67/2
f  29/29/6 55/81/6 45/39/6
f  39/73/2 25/53/2 45/52/2
f  56/82/1 35/31/1 46/70/1
f  26/83/3 56/37/3 46/21/3
f  37/55/5 35/66/5 57/84/5
f  26/70/1 42/69/1 58/82/1
f  41/66/5 42/85/5 36/86/5
f  43/71/5 37/55/5 53/87/5
f  52/88/5 22/42/5 43/71/5
f  52/79/2 47/72/2 22/19/2
f  47/89/3 59/90/3 38/91/3
f  59/92/6 34/93/6 38/94/6
f  48/74/6 40/27/6 39/44/6
f  55/81/6 29/29/6 48/74/6
f  42/85/5 41/66/5 49/84/5
f  60/95/4 42/7/4 50/75/4
f  44/96/8 50/97/9 31/98/8
f  47/72/2 32/64/2 51/77/2
f  34/99/5 61/100/5 51/101/5
f  47/72/2 52/79/2 32/64/2
f  24/64/2 53/78/2 62/102/2
f  24/64/2 63/103/2 54/80/2
f  50/97/9 44/96/8 54/104/9
f  45/39/6 55/81/6 64/105/6
f  45/39/6 64/105/6 39/44/6
f  35/31/1 56/82/1 57/106/1
f  56/37/3 26/83/3 58/107/3
f  56/32/4 37/108/4 57/43/4
f  65/109/4 58/17/4 42/7/4
f  37/110/10 62/111/11 53/112/10
f  59/90/3 47/89/3 66/113/3
f  34/93/6 59/92/6 67/114/6
f  48/74/6 39/44/6 68/115/6
f  48/116/2 69/117/2 55/118/2
f  70/119/4 42/7/4 60/95/4
f  71/120/4 60/95/4 50/75/4
f  61/121/1 47/122/1 51/123/1
f  61/100/5 34/99/5 67/124/5
f  24/64/2 62/102/2 72/125/2
f  24/64/2 73/126/2 63/103/2
f  71/127/12 54/128/9 63/129/12
f  54/128/9 71/127/12 50/130/9
f  69/131/3 64/132/3 55/133/3
f  68/115/6 39/44/6 64/105/6
f  74/134/4 56/32/4 58/17/4
f  37/108/4 56/32/4 74/134/4
f  75/135/4 58/17/4 65/109/4
f  65/109/4 42/7/4 70/119/4
f  62/111/11 37/110/10 74/136/11
f  47/122/1 61/121/1 66/137/1
f  66/72/2 76/138/2 59/56/2
f  59/56/2 77/139/2 67/54/2
f  78/140/5 48/118/5 68/141/5
f  69/117/2 48/116/2 79/142/2
f  70/143/5 80/144/5 60/145/5
f  60/145/5 81/146/5 70/143/5
f  82/147/4 60/95/4 71/120/4
f  67/54/2 83/148/2 61/77/2
f  74/149/11 72/150/13 62/151/11
f  24/64/2 72/125/2 84/152/2
f  24/64/2 85/153/2 73/126/2
f  82/154/14 63/155/12 73/156/14
f  63/155/12 82/154/14 71/157/12
f  64/132/3 69/131/3 86/158/3
f  64/133/4 78/159/4 68/160/4
f  74/134/4 58/17/4 75/135/4
f  87/161/4 75/135/4 65/109/4
f  88/162/6 70/163/6 65/164/6
f  81/165/6 65/164/6 70/163/6
f  76/138/2 66/72/2 61/77/2
f  77/139/2 59/56/2 76/138/2
f  67/54/2 77/139/2 83/148/2
f  48/118/5 78/140/5 79/117/5
f  78/115/6 69/81/6 79/74/6
f  80/144/5 70/143/5 89/166/5
f  80/167/1 87/168/1 60/169/1
f  81/146/5 60/145/5 90/170/5
f  91/171/4 60/95/4 82/147/4
f  92/172/2 61/77/2 83/148/2
f  72/150/13 74/149/11 75/173/13
f  75/174/13 84/175/15 72/176/13
f  24/64/2 84/152/2 93/177/2
f  24/64/2 94/178/2 85/153/2
f  91/179/16 73/180/14 85/181/16
f  73/180/14 91/179/16 82/182/14
f  69/81/6 78/115/6 86/105/6
f  78/159/4 64/133/4 86/131/4
f  75/135/4 87/161/4 95/183/4
f  87/184/3 88/185/3 65/186/3
f  65/186/3 96/187/3 87/184/3
f  70/163/6 88/162/6 89/188/6
f  65/164/6 81/165/6 97/189/6
f  76/138/2 61/77/2 92/172/2
f  76/190/5 98/191/5 77/192/5
f  98/193/1 83/194/1 77/195/1
f  89/119/4 99/196/4 80/95/4
f  87/168/1 80/167/1 100/197/1
f  96/198/1 60/169/1 87/168/1
f  95/183/4 87/161/4 60/95/4
f  60/169/1 96/198/1 90/199/1
f  96/161/4 81/119/4 90/95/4
f  90/170/5 101/200/5 81/146/5
f  102/201/4 60/95/4 91/171/4
f  83/202/3 103/203/3 92/204/3
f  84/175/15 75/174/13 95/205/15
f  95/206/15 93/207/17 84/208/15
f  24/64/2 93/177/2 104/209/2
f  24/64/2 104/209/2 94/178/2
f  102/210/18 85/211/16 94/212/18
f  85/211/16 102/210/18 91/213/16
f  88/185/3 87/184/3 100/214/3
f  96/187/3 65/186/3 97/215/3
f  88/109/4 99/196/4 89/119/4
f  101/216/6 97/189/6 81/165/6
f  81/119/4 96/161/4 97/109/4
f  103/217/6 76/218/6 92/219/6
f  98/191/5 76/190/5 105/220/5
f  83/194/1 98/193/1 106/221/1
f  107/222/4 80/95/4 99/196/4
f  107/222/4 100/161/4 80/95/4
f  95/183/4 60/95/4 108/223/4
f  109/224/1 90/199/1 96/198/1
f  101/200/5 90/170/5 110/225/5
f  111/226/4 60/95/4 102/201/4
f  103/203/3 83/202/3 106/227/3
f  93/207/17 95/206/15 108/228/17
f  108/229/17 104/230/19 93/231/17
f  111/232/19 94/233/20 104/234/19
f  94/233/20 111/232/19 102/235/20
f  100/161/4 112/236/4 88/109/4
f  97/215/3 109/237/3 96/187/3
f  88/109/4 113/238/4 99/196/4
f  97/189/6 101/216/6 114/239/6
f  76/218/6 103/217/6 105/240/6
f  103/172/2 98/139/2 105/138/2
f  98/139/2 103/172/2 106/148/2
f  99/241/3 115/242/3 107/243/3
f  112/236/4 100/161/4 107/222/4
f  108/223/4 60/95/4 111/226/4
f  90/199/1 109/224/1 110/244/1
f  110/245/2 115/246/2 101/247/2
f  104/230/19 108/229/17 111/248/19
f  113/238/4 88/109/4 112/236/4
f  109/237/3 97/215/3 114/249/3
f  116/250/1 99/251/1 113/252/1
f  117/253/2 114/254/2 101/247/2
f  115/242/3 99/241/3 117/255/3
f  115/256/6 112/257/6 107/258/6
f  109/259/2 115/246/2 110/245/2
f  117/253/2 101/247/2 115/246/2
f  112/260/5 116/261/5 113/262/5
f  114/254/2 116/263/2 109/259/2
f  99/251/1 116/250/1 117/264/1
f  116/263/2 114/254/2 117/253/2
f  112/257/6 115/256/6 118/265/6
f  109/259/2 118/266/2 115/246/2
f  116/261/5 112/260/5 118/267/5
f  118/266/2 109/259/2 116/263/2

# Mesh 'mesh1_mesh1-geometry' with 240 faces
g mesh1_mesh1-geometry
usemtl material_1_24
f  3//6 2//6 1//6
f  4//6 1//6 2//6
f  3//4 5//4 2//4
f  3//5 1//5 5//5
f  4//2 6//2 1//2
f  4//3 2//3 6//3
f  2//4 5//4 7//4
f  8//5 5//5 1//5
f  1//2 6//2 8//2
f  7//3 6//3 2//3
f  7//4 5//4 9//4
f  10//5 5//5 8//5
f  6//2 11//2 8//2
f  7//6 9//6 6//6
f  5//4 12//4 9//4
f  5//5 10//5 13//5
f  8//6 14//6 10//6
f  8//2 11//2 14//2
f  11//6 6//6 9//6
f  15//4 9//4 12//4
f  5//1 16//1 12//1
f  13//5 10//5 17//5
f  13//1 18//1 5//1
f  19//6 10//6 14//6
f  11//2 20//2 14//2
f  11//5 9//5 20//5
f  9//4 15//4 21//4
f  12//3 14//3 15//3
f  22//1 12//1 16//1
f  16//1 5//1 18//1
f  17//5 10//5 23//5
f  24//5 13//5 17//5
f  25//1 18//1 13//1
f  10//4 19//4 26//4
f  14//3 22//3 19//3
f  27//2 14//2 20//2
f  21//5 20//5 9//5
f  21//6 15//6 20//6
f  27//3 15//3 14//3
f  22//3 14//3 12//3
f  28//1 22//1 16//1
f  18//2 29//2 16//2
f  30//5 23//5 10//5
f  17//2 23//2 31//2
f  32//5 13//5 24//5
f  33//5 24//5 17//5
f  18//3 25//3 29//3
f  13//4 34//4 25//4
f  35//4 26//4 19//4
f  36//4 10//4 26//4
f  22//3 37//3 19//3
f  27//6 20//6 15//6
f  28//4 38//4 22//4
f  28//5 16//5 39//5
f  40//2 16//2 29//2
f  30//6 41//6 23//6
f  10//4 36//4 30//4
f  31//2 23//2 42//2
f  17//21 31//22 33//21
f  32//4 34//4 13//4
f  24//1 43//1 32//1
f  33//4 44//4 24//4
f  45//3 29//3 25//3
f  25//4 34//4 28//4
f  26//4 35//4 46//4
f  19//3 37//3 35//3
f  36//6 26//6 42//6
f  43//3 37//3 22//3
f  47//4 22//4 38//4
f  34//4 38//4 28//4
f  40//5 39//5 16//5
f  28//4 39//4 25//4
f  29//1 48//1 40//1
f  49//6 23//6 41//6
f  41//4 30//4 36//4
f  49//2 42//2 23//2
f  31//2 42//2 50//2
f  44//22 33//21 31//22
f  34//4 32//4 51//4
f  52//1 32//1 43//1
f  43//4 24//4 53//4
f  44//4 54//4 24//4
f  45//1 55//1 29//1
f  45//4 25//4 39//4
f  46//6 35//6 56//6
f  46//5 56//5 26//5
f  57//3 35//3 37//3
f  58//6 42//6 26//6
f  36//3 42//3 41//3
f  53//3 37//3 43//3
f  43//3 22//3 52//3
f  22//4 47//4 52//4
f  38//5 59//5 47//5
f  38//1 34//1 59//1
f  39//1 40//1 48//1
f  48//1 29//1 55//1
f  49//3 41//3 42//3
f  50//2 42//2 60//2
f  31//22 50//23 44//22
f  51//4 32//4 47//4
f  51//3 61//3 34//3
f  32//4 52//4 47//4
f  62//4 53//4 24//4
f  54//4 63//4 24//4
f  54//23 44//22 50//23
f  64//1 55//1 45//1
f  39//1 64//1 45//1
f  57//6 56//6 35//6
f  58//5 26//5 56//5
f  57//2 37//2 56//2
f  42//2 58//2 65//2
f  53//24 62//25 37//24
f  66//5 47//5 59//5
f  67//1 59//1 34//1
f  68//1 39//1 48//1
f  55//4 69//4 48//4
f  60//2 42//2 70//2
f  50//2 60//2 71//2
f  51//6 47//6 61//6
f  67//3 34//3 61//3
f  72//4 62//4 24//4
f  63//4 73//4 24//4
f  63//26 54//23 71//26
f  50//23 71//26 54//23
f  55//5 64//5 69//5
f  64//1 39//1 68//1
f  58//2 56//2 74//2
f  74//2 56//2 37//2
f  65//2 58//2 75//2
f  70//2 42//2 65//2
f  74//25 37//24 62//25
f  66//6 61//6 47//6
f  59//4 76//4 66//4
f  67//4 77//4 59//4
f  68//3 48//3 78//3
f  79//4 48//4 69//4
f  60//3 80//3 70//3
f  70//3 81//3 60//3
f  71//2 60//2 82//2
f  61//4 83//4 67//4
f  62//25 72//27 74//25
f  84//4 72//4 24//4
f  73//4 85//4 24//4
f  73//28 63//26 82//28
f  71//26 82//28 63//26
f  86//5 69//5 64//5
f  68//2 78//2 64//2
f  75//2 58//2 74//2
f  65//2 75//2 87//2
f  65//1 70//1 88//1
f  70//1 65//1 81//1
f  61//4 66//4 76//4
f  76//4 59//4 77//4
f  83//4 77//4 67//4
f  79//3 78//3 48//3
f  79//1 69//1 78//1
f  89//3 70//3 80//3
f  60//6 87//6 80//6
f  90//3 60//3 81//3
f  82//2 60//2 91//2
f  83//4 61//4 92//4
f  75//27 74//25 72//27
f  72//27 84//29 75//27
f  93//4 84//4 24//4
f  85//4 94//4 24//4
f  85//30 73//28 91//30
f  82//28 91//30 73//28
f  86//1 78//1 69//1
f  86//2 64//2 78//2
f  95//2 87//2 75//2
f  65//5 88//5 87//5
f  87//5 96//5 65//5
f  89//1 88//1 70//1
f  97//1 81//1 65//1
f  92//4 61//4 76//4
f  77//3 98//3 76//3
f  77//6 83//6 98//6
f  80//2 99//2 89//2
f  100//6 80//6 87//6
f  87//6 60//6 96//6
f  60//2 87//2 95//2
f  90//6 96//6 60//6
f  90//2 81//2 96//2
f  81//3 101//3 90//3
f  91//2 60//2 102//2
f  92//5 103//5 83//5
f  95//29 75//27 84//29
f  84//29 93//31 95//29
f  104//4 93//4 24//4
f  94//4 104//4 24//4
f  94//32 85//30 102//32
f  91//30 102//32 85//30
f  100//5 87//5 88//5
f  97//5 65//5 96//5
f  89//2 99//2 88//2
f  81//1 97//1 101//1
f  97//2 96//2 81//2
f  92//1 76//1 103//1
f  105//3 76//3 98//3
f  106//6 98//6 83//6
f  99//2 80//2 107//2
f  80//2 100//2 107//2
f  108//2 60//2 95//2
f  96//6 90//6 109//6
f  110//3 90//3 101//3
f  102//2 60//2 111//2
f  106//5 83//5 103//5
f  108//31 95//29 93//31
f  93//31 104//33 108//31
f  104//33 94//34 111//33
f  102//34 111//33 94//34
f  88//2 112//2 100//2
f  96//5 109//5 97//5
f  99//2 113//2 88//2
f  114//1 101//1 97//1
f  105//1 103//1 76//1
f  105//4 98//4 103//4
f  106//4 103//4 98//4
f  107//5 115//5 99//5
f  107//2 100//2 112//2
f  111//2 60//2 108//2
f  110//6 109//6 90//6
f  101//4 115//4 110//4
f  111//33 108//31 104//33
f  112//2 88//2 113//2
f  114//5 97//5 109//5
f  113//6 99//6 116//6
f  101//4 114//4 117//4
f  117//5 99//5 115//5
f  107//1 112//1 115//1
f  110//4 115//4 109//4
f  115//4 101//4 117//4
f  113//3 116//3 112//3
f  109//4 116//4 114//4
f  117//6 116//6 99//6
f  117//4 114//4 116//4
f  118//1 115//1 112//1
f  115//4 118//4 109//4
f  118//3 112//3 116//3
f  116//4 109//4 118//4

